<svg width="208" height="39" viewBox="0 0 208 39" fill="none" xmlns="http://www.w3.org/2000/svg">
<g id="LeDebut Logo\">
<g id="Group 48096022" filter="url(#filter0_f_368_760)">
<g id="Group" filter="url(#filter1_d_368_760)">
<g id="Group_2">
<g id="Group_3">
<path id="Vector" d="M62.4787 31.9274L62.4795 31.9271C64.2407 31.2143 65.5536 30.2029 66.4593 28.9006C67.3113 27.6755 67.8659 26.3183 68.1385 24.8155L64.6091 24.4375C64.4623 25.2314 64.1625 25.9693 63.7269 26.6494C63.2108 27.4551 62.4144 28.0722 61.3859 28.4889C60.8552 28.7053 60.3021 28.8376 59.7385 28.8857C59.1602 28.935 58.5859 28.8606 58.0286 28.6783C57.4507 28.4927 56.9381 28.1852 56.4586 27.7782L56.4556 27.7757L56.4556 27.7756C55.972 27.3554 55.5596 26.7856 55.2115 26.1038L55.0409 25.7695L55.3901 25.627L67.1377 20.8333C67.1299 20.7972 67.1232 20.762 67.1172 20.7279C67.0746 20.6042 67.0435 20.4679 67.0165 20.3401C67.0006 20.2956 66.9848 20.2474 66.9697 20.2015C66.9653 20.188 66.9609 20.1747 66.9566 20.1617C66.9339 20.0928 66.9103 20.024 66.8827 19.9541L66.8778 19.9416L66.878 19.9415C66.442 18.696 65.8735 17.6232 65.1648 16.7076C64.4545 15.8014 63.6479 15.0897 62.7366 14.5962C61.8262 14.1032 60.822 13.8337 59.7082 13.7904C58.6043 13.7475 57.4356 13.9827 56.1873 14.4879C55.0096 14.9677 54.0228 15.6291 53.2194 16.4917C52.4074 17.3634 51.7892 18.3431 51.3535 19.4218C50.9189 20.509 50.6962 21.6645 50.6678 22.8915L62.4787 31.9274ZM62.4787 31.9274C61.298 32.4084 60.1383 32.6344 59.0076 32.602L59.0076 32.602M62.4787 31.9274L59.0076 32.602M59.0076 32.602C57.8576 32.5694 56.7853 32.32 55.7867 31.8448C54.7867 31.3688 53.8876 30.6869 53.1094 29.7847L53.108 29.7831M59.0076 32.602L53.108 29.7831M53.108 29.7831C52.3318 28.8942 51.714 27.8042 51.2588 26.5177L51.2587 26.5176M53.108 29.7831L51.2587 26.5176M51.2587 26.5176C50.8358 25.3248 50.6394 24.1242 50.6678 22.8915L51.2587 26.5176ZM62.4579 19.8056L62.7832 19.6724L62.6461 19.3505C62.4997 19.0067 62.2613 18.6791 61.9488 18.3553C61.6218 18.0164 61.2266 17.7435 60.7571 17.5351C60.2833 17.3248 59.7537 17.2023 59.1711 17.1896C58.5707 17.1652 57.9177 17.304 57.2382 17.5884C56.259 17.9888 55.4873 18.648 54.9561 19.5496C54.4128 20.4536 54.1836 21.5079 54.2654 22.6749L54.2984 23.147L54.7375 22.9672L62.4579 19.8056Z" stroke="#FFDBF7" stroke-width="0.68858"/>
</g>
<g id="Group_4">
<path id="Vector_2" d="M74.235 16.5598C74.6289 15.8521 75.2317 15.2376 76.0706 14.7099C76.8828 14.2101 77.9153 13.9493 79.1666 13.9493C80.2017 13.9493 81.1832 14.1743 82.1255 14.6366C83.0642 15.1022 83.8999 15.7405 84.6141 16.5639C85.3292 17.3885 85.9042 18.3679 86.3267 19.5282L86.3271 19.5292C86.7472 20.6718 86.9551 21.9401 86.9463 23.3153C86.9375 24.69 86.7136 25.9474 86.2783 27.1022C85.8398 28.2544 85.2623 29.2434 84.5291 30.0649L84.5276 30.0667C83.8027 30.8904 82.9585 31.5288 82.0136 31.9945C81.0772 32.4559 80.0827 32.6814 79.0466 32.6814C77.7957 32.6814 76.7754 32.4207 75.9574 31.919C75.1185 31.4044 74.5247 30.7808 74.1501 30.0741L74.0539 29.8925L73.8479 29.8925L73.5733 29.8925L73.229 29.8925L73.2268 30.2368L73.215 32.083L69.6268 32.083L69.7931 6.13579L73.6558 6.13579L73.6069 13.7676L73.3176 16.3578L73.2752 16.7382L73.6576 16.7382L73.9322 16.7382L74.1357 16.7382L74.235 16.5598ZM82.6524 25.6026L82.6524 25.6026L82.6542 25.5981C82.9301 24.9087 83.0677 24.1425 83.073 23.3153C83.0783 22.4882 82.9505 21.7219 82.6835 21.0326C82.42 20.3524 82.0636 19.7725 81.612 19.2864C81.1618 18.8016 80.6517 18.4362 80.0629 18.1691C79.4714 17.9007 78.8537 17.7658 78.2023 17.7658C77.5556 17.7658 76.9379 17.8875 76.3422 18.1441C75.7459 18.4008 75.2297 18.7679 74.7734 19.2525C74.3136 19.7407 73.962 20.3206 73.6814 20.9942L73.6814 20.9942L73.6796 20.9987C73.4033 21.6891 73.266 22.467 73.2606 23.3153C73.2552 24.1637 73.3824 24.9416 73.6499 25.632C73.9134 26.3122 74.2698 26.8921 74.7213 27.3782C75.1714 27.8628 75.6829 28.2299 76.2759 28.4866C76.8684 28.7432 77.4845 28.8648 78.1312 28.8648C78.7826 28.8648 79.402 28.73 79.997 28.4616C80.5921 28.1932 81.105 27.816 81.5574 27.3475C82.021 26.8673 82.3729 26.2734 82.6524 25.6026Z" stroke="#FFDBF7" stroke-width="0.68858"/>
</g>
<g id="Group_5">
<path id="Vector_3" d="M100.17 29.7013L99.9729 29.7013L99.8719 29.8707C99.3554 30.7373 98.6731 31.4282 97.8242 31.9278C96.9683 32.4252 96.0019 32.6822 94.8954 32.6822C92.8206 32.6822 91.3318 32.0029 90.3621 30.6973C89.3709 29.3627 88.865 27.5572 88.8798 25.2468L88.9485 14.5484L92.8277 14.5484L92.7628 24.6597C92.7542 26.0073 93.0284 27.086 93.6391 27.8075L93.6391 27.8075L93.6412 27.81C94.2672 28.5353 95.1636 28.8769 96.2838 28.8769C96.9638 28.8769 97.5764 28.7162 98.112 28.3996C98.6363 28.0898 99.0759 27.6703 99.4428 27.1486C99.8107 26.6256 100.084 26.0224 100.267 25.321C100.447 24.6387 100.551 23.91 100.556 23.1354L100.611 14.5484L104.49 14.5484L104.378 32.0837L100.784 32.0837L100.797 30.0456L100.799 29.7013L100.455 29.7013L100.445 29.7013L100.17 29.7013Z" stroke="#FFDBF7" stroke-width="0.68858"/>
</g>
<g id="Group_6">
<path id="Vector_4" d="M109.363 18.0259L106.724 18.0259L106.746 14.5481L109.385 14.5481L109.73 14.5481L109.732 14.2038L109.765 8.97026L113.631 8.97026L113.598 14.2038L113.595 14.5481L113.94 14.5481L117.76 14.5481L117.738 18.0259L113.918 18.0259L113.573 18.0259L113.571 18.3702L113.524 25.653C113.522 26.1158 113.563 26.5368 113.651 26.9372C113.742 27.3488 113.907 27.7218 114.184 28.0239C114.583 28.5179 115.148 28.7523 115.831 28.7523C116.242 28.7523 116.606 28.7056 116.895 28.5934C117.009 28.5491 117.122 28.4995 117.233 28.4435L118.284 32.0185C117.848 32.2154 117.39 32.3677 116.903 32.4754C116.319 32.6046 115.669 32.6705 114.941 32.6705C114.127 32.6705 113.406 32.5307 112.771 32.258C112.128 31.9819 111.603 31.614 111.178 31.1455L111.178 31.1454L111.173 31.1402C110.173 30.0822 109.65 28.5633 109.664 26.5224L109.716 18.3702L109.718 18.0259L109.374 18.0259L109.363 18.0259Z" stroke="#FFDBF7" stroke-width="0.68858"/>
</g>
</g>
<g id="Group_7">
<g id="Group_8">
<path id="Vector_5" d="M6.35374 32.109L6.51008 7.13286L10.3181 7.13286L10.1618 32.109L6.35374 32.109Z" stroke="#FFDBF7" stroke-width="0.68858"/>
</g>
<g id="Group_9">
<path id="Vector_6" d="M24.0443 32.2035L24.045 32.2032C25.8063 31.4904 27.1192 30.479 28.0249 29.1767C28.8763 27.9524 29.4307 26.5962 29.7035 25.0945L26.1643 24.7448C26.0177 25.5397 25.7177 26.2785 25.2816 26.9594C24.7655 27.7651 23.9692 28.3822 22.9406 28.7989C22.4099 29.0153 21.8568 29.1476 21.2932 29.1957C20.715 29.245 20.1406 29.1706 19.5833 28.9883C19.0054 28.8027 18.4929 28.4952 18.0133 28.0882L18.0103 28.0857L18.0103 28.0856C17.5267 27.6654 17.1143 27.0956 16.7662 26.4138L16.596 26.0802L16.9441 25.9373L28.7033 21.1101C28.6955 21.0737 28.6887 21.0383 28.6827 21.004C28.6401 20.8803 28.609 20.744 28.582 20.6162C28.5661 20.5717 28.5503 20.5235 28.5352 20.4776C28.5308 20.4641 28.5264 20.4508 28.5221 20.4378C28.4994 20.3689 28.4758 20.3001 28.4482 20.2303L28.4433 20.2177L28.4435 20.2176C28.0075 18.9721 27.439 17.8993 26.7303 16.9838C26.02 16.0775 25.2134 15.3658 24.302 14.8723C23.3917 14.3794 22.3875 14.1098 21.2737 14.0665C20.1697 14.0237 19.001 14.2588 17.7527 14.764C16.575 15.2438 15.5882 15.9052 14.7848 16.7678C13.9728 17.6395 13.3546 18.6193 12.919 19.6979C12.4843 20.7851 12.2617 21.9406 12.2333 23.1676L24.0443 32.2035ZM24.0443 32.2035C22.8635 32.6845 21.7039 32.9105 20.5732 32.8782L20.5731 32.8782M24.0443 32.2035L20.5731 32.8782M20.5731 32.8782C19.4231 32.8456 18.3508 32.5961 17.3523 32.1209C16.3522 31.6449 15.4531 30.963 14.6749 30.0608L14.6735 30.0592M20.5731 32.8782L14.6735 30.0592M14.6735 30.0592C13.8973 29.1704 13.2795 28.0804 12.8243 26.7939L12.8242 26.7937M14.6735 30.0592L12.8242 26.7937M12.8242 26.7937C12.4013 25.6009 12.2049 24.4004 12.2333 23.1677L12.8242 26.7937ZM24.0234 20.093L24.3486 19.9598L24.2115 19.6379C24.0651 19.2941 23.8267 18.9665 23.5142 18.6427C23.1872 18.3038 22.792 18.0309 22.3225 17.8225C21.8487 17.6122 21.3191 17.4897 20.7364 17.4771C20.1361 17.4526 19.4831 17.5914 18.8037 17.8758C17.8244 18.2762 17.0527 18.9354 16.5214 19.8371C15.9782 20.741 15.749 21.7954 15.8308 22.9623L15.8638 23.4344L16.3029 23.2546L24.0234 20.093Z" stroke="#FFDBF7" stroke-width="0.68858"/>
</g>
</g>
<g id="Group_10">
<g id="Group_11">
<path id="Vector_7" d="M44.8337 13.7806L44.8489 11.3992L48.7271 11.3992L48.5945 32.0848L45.0017 32.0848L45.0135 30.2386L45.0157 29.8943L44.6715 29.8943L44.3966 29.8943L44.1907 29.8943L44.0921 30.0757C43.7089 30.7809 43.0966 31.4052 42.2585 31.921C41.4332 32.4226 40.4086 32.6832 39.1565 32.6832C38.1192 32.6832 37.1264 32.4577 36.1949 31.9962C35.2549 31.5305 34.4179 30.892 33.7028 30.0684L33.7013 30.0666C32.9778 29.245 32.4124 28.2558 31.9882 27.1036C31.5673 25.9489 31.3594 24.6915 31.3682 23.3171C31.377 21.9426 31.6011 20.6848 32.0266 19.5406C32.4645 18.3806 33.0525 17.4015 33.7788 16.5771C34.5045 15.7535 35.3496 15.115 36.2956 14.6493C37.233 14.1878 38.2287 13.9623 39.266 13.9623C40.5188 13.9623 41.5492 14.2232 42.3559 14.723C43.1891 15.2508 43.7847 15.8653 44.1699 16.573L44.2669 16.7512L44.4703 16.7512L44.7452 16.7512L45.1277 16.7512L45.09 16.3709L44.8337 13.7806ZM36.6877 27.3575L36.6877 27.3575L36.6906 27.3607C37.1375 27.8292 37.6461 28.2064 38.2383 28.4747C38.8304 28.7431 39.4487 28.8779 40.1006 28.8779C40.748 28.8779 41.3662 28.7562 41.9625 28.4997C42.5594 28.243 43.0761 27.876 43.5329 27.3914C43.9908 26.9056 44.3549 26.3262 44.6273 25.6465C44.9161 24.9417 45.0419 24.1737 45.0473 23.3284C45.0527 22.48 44.9253 21.7021 44.6576 21.0117L44.6576 21.0116L44.6558 21.0071C44.3835 20.3335 44.039 19.7536 43.585 19.2654C43.1344 18.7808 42.6224 18.4138 42.0289 18.1571C41.4358 17.9006 40.8191 17.7789 40.1718 17.7789C39.5199 17.7789 38.8999 17.9137 38.3043 18.1821C37.7116 18.4491 37.1963 18.8145 36.7394 19.2993C36.2811 19.7854 35.9169 20.3653 35.6444 21.0455C35.3682 21.7349 35.2305 22.5012 35.2252 23.3284C35.2199 24.1556 35.3477 24.9219 35.6151 25.6113L35.615 25.6113L35.6169 25.6158C35.8892 26.2894 36.2337 26.8693 36.6877 27.3575Z" stroke="#FFDBF7" stroke-width="0.68858"/>
</g>
</g>
<g id="Group_12">
<g id="Group_13">
<path id="Vector_8" d="M55.8315 12.7256L53.3543 13.7399L53.1377 9.80108L56.7784 8.31114L55.8315 12.7256Z" stroke="#FFDBF7" stroke-width="0.34429"/>
<g id="Vector_9">
<mask id="path-9-inside-1_368_760" fill="white">
<path d="M53.0465 14.2298L52.7911 9.57788L57.2283 7.76001L56.107 12.9765L53.0465 14.2298ZM53.1171 9.80371L53.3348 13.7443L55.8339 12.7281L56.7811 8.31328L53.1171 9.80371Z"/>
</mask>
<path d="M53.0465 14.2298L52.7027 14.2509L52.7291 14.731L53.1752 14.5483L53.0465 14.2298ZM52.7911 9.57788L52.6623 9.25942L52.4338 9.35303L52.4473 9.59895L52.7911 9.57788ZM57.2283 7.76001L57.5649 7.8303L57.7014 7.19493L57.0995 7.44154L57.2283 7.76001ZM56.107 12.9765L56.2357 13.295L56.4051 13.2256L56.4435 13.0468L56.107 12.9765ZM53.1171 9.80371L52.9891 9.48491L52.7597 9.57824L52.7733 9.82489L53.1171 9.80371ZM53.3348 13.7443L52.991 13.7655L53.0174 14.2442L53.4627 14.0631L53.3348 13.7443ZM55.8339 12.7281L55.9619 13.0469L56.1321 12.9777L56.1706 12.7983L55.8339 12.7281ZM56.7811 8.31328L57.1177 8.38343L57.2536 7.75024L56.6531 7.99448L56.7811 8.31328ZM53.3903 14.2088L53.1349 9.55682L52.4473 9.59895L52.7027 14.2509L53.3903 14.2088ZM52.9199 9.89635L57.357 8.07848L57.0995 7.44154L52.6623 9.25942L52.9199 9.89635ZM56.8917 7.68972L55.7704 12.9062L56.4435 13.0468L57.5649 7.8303L56.8917 7.68972ZM55.9782 12.658L52.9177 13.9113L53.1752 14.5483L56.2357 13.295L55.9782 12.658ZM52.7733 9.82489L52.991 13.7655L53.6785 13.7231L53.4608 9.78252L52.7733 9.82489ZM53.4627 14.0631L55.9619 13.0469L55.706 12.4093L53.2068 13.4255L53.4627 14.0631ZM56.1706 12.7983L57.1177 8.38343L56.4445 8.24312L55.4973 12.658L56.1706 12.7983ZM56.6531 7.99448L52.9891 9.48491L53.245 10.1225L56.9091 8.63207L56.6531 7.99448Z" fill="#FFDBF7" mask="url(#path-9-inside-1_368_760)"/>
</g>
</g>
</g>
</g>
<g id="2024 (Stroke)">
<g id="Stroke" filter="url(#filter2_d_368_760)">
<path fill-rule="evenodd" clip-rule="evenodd" d="M194.91 32.428V28.0406H183.93V24.0002L195.555 13.5093H199.552V23.375H202V28.0406H199.552V32.428H194.91ZM198.819 27.3076H201.267V24.1079H198.819V14.2423H195.837L184.663 24.3261V27.3076H195.643V31.6951H198.819V27.3076ZM195.643 24.1079H189.608L195.643 19.066V24.1079ZM194.91 20.6334L191.628 23.375H194.91V20.6334Z" fill="#C5DFFF"/>
</g>
<g id="Stroke_2" filter="url(#filter3_d_368_760)">
<path fill-rule="evenodd" clip-rule="evenodd" d="M165.045 32.428V25.0048C165.045 24.2496 165.231 23.5496 165.614 22.925C165.982 22.3244 166.471 21.8431 167.075 21.4907C167.695 21.1128 168.383 20.9267 169.123 20.9267H179.153V18.1507H169.686V19.6293H165.045V17.5874C165.045 16.8322 165.231 16.1322 165.614 15.5075C165.982 14.907 166.471 14.4257 167.075 14.0733C167.695 13.6954 168.383 13.5093 169.123 13.5093H179.716C180.454 13.5093 181.141 13.6946 181.76 14.0707C182.38 14.4221 182.874 14.9055 183.23 15.5149C183.61 16.1377 183.794 16.8351 183.794 17.5874V21.5143C183.794 22.2435 183.605 22.9291 183.233 23.558C182.877 24.1684 182.384 24.6591 181.767 25.0265C181.147 25.4056 180.457 25.5924 179.716 25.5924H169.686V27.7866H183.794V32.428H165.045ZM169.026 28.4469C168.978 28.3823 168.953 28.3095 168.953 28.2287V25.1503C168.953 25.0695 168.978 25.0048 169.026 24.9563C169.091 24.8917 169.163 24.8594 169.244 24.8594H179.716C180.33 24.8594 180.888 24.7059 181.388 24.3988C181.906 24.0918 182.31 23.6878 182.6 23.1868C182.907 22.6697 183.061 22.1122 183.061 21.5143V17.5874C183.061 16.9571 182.907 16.3915 182.6 15.8906C182.31 15.3896 181.906 14.9937 181.388 14.7028C180.888 14.3958 180.33 14.2423 179.716 14.2423H169.123C168.509 14.2423 167.951 14.3958 167.45 14.7028C166.95 14.9937 166.545 15.3896 166.238 15.8906C165.931 16.3915 165.778 16.9571 165.778 17.5874V18.8963H168.953V17.7086C168.953 17.6278 168.978 17.5631 169.026 17.5147C169.091 17.45 169.163 17.4177 169.244 17.4177H179.595C179.676 17.4177 179.74 17.45 179.789 17.5147C179.853 17.5631 179.886 17.6278 179.886 17.7086V21.3688C179.886 21.4496 179.853 21.5223 179.789 21.587C179.74 21.6355 179.676 21.6597 179.595 21.6597H169.123C168.509 21.6597 167.951 21.8132 167.45 22.1203C166.95 22.4111 166.545 22.8071 166.238 23.308C165.931 23.809 165.778 24.3746 165.778 25.0048V31.6951H183.061V28.5196H169.244C169.163 28.5196 169.091 28.4954 169.026 28.4469Z" fill="#C5DFFF"/>
</g>
<g id="Stroke_3" filter="url(#filter4_d_368_760)">
<path fill-rule="evenodd" clip-rule="evenodd" d="M146.824 31.8171C146.229 31.4143 145.749 30.8949 145.387 30.267C145.018 29.6259 144.829 28.9346 144.829 28.2045V17.6601C144.829 16.9066 145.014 16.2082 145.395 15.5846C145.76 14.9721 146.244 14.476 146.844 14.1065C147.466 13.7076 148.16 13.5093 148.907 13.5093H159.5C160.248 13.5093 160.942 13.7076 161.563 14.1065C162.163 14.476 162.648 14.9722 163.012 15.5848C163.393 16.2083 163.578 16.9067 163.578 17.6601V28.2045C163.578 28.9346 163.389 29.6259 163.02 30.267C162.658 30.8949 162.178 31.4143 161.584 31.8171L161.57 31.8263C160.947 32.2283 160.251 32.428 159.5 32.428H148.907C148.157 32.428 147.46 32.2282 146.837 31.8262L146.824 31.8171ZM162.385 15.9633C162.078 15.4462 161.674 15.0341 161.173 14.7271C160.672 14.4039 160.114 14.2423 159.5 14.2423H148.907C148.293 14.2423 147.736 14.4039 147.235 14.7271C146.734 15.0341 146.33 15.4462 146.023 15.9633C145.716 16.4643 145.562 17.0299 145.562 17.6601V28.2045C145.562 28.8024 145.716 29.368 146.023 29.9013C146.33 30.4346 146.734 30.8709 147.235 31.2103C147.736 31.5335 148.293 31.6951 148.907 31.6951H159.5C160.114 31.6951 160.672 31.5335 161.173 31.2103C161.674 30.8709 162.078 30.4346 162.385 29.9013C162.692 29.368 162.845 28.8024 162.845 28.2045V17.6601C162.845 17.0299 162.692 16.4643 162.385 15.9633ZM158.937 27.617V22.0131L152.216 27.617H158.937ZM150.192 28.3499L159.67 20.4477V28.0591C159.67 28.1399 159.637 28.2126 159.573 28.2772C159.524 28.3257 159.46 28.3499 159.379 28.3499H150.192ZM158.215 17.4904H149.028C148.948 17.4904 148.875 17.5227 148.81 17.5874C148.762 17.6359 148.738 17.7005 148.738 17.7813V25.3927L158.215 17.4904ZM156.192 18.2234H149.47V23.8272L156.192 18.2234Z" fill="#C5DFFF"/>
</g>
<g id="Stroke_4" filter="url(#filter5_d_368_760)">
<path fill-rule="evenodd" clip-rule="evenodd" d="M124.708 32.428V25.0048C124.708 24.2496 124.894 23.5496 125.277 22.925C125.645 22.3244 126.134 21.8432 126.738 21.4908C127.358 21.1129 128.046 20.9267 128.786 20.9267H138.816V18.1507H129.349V19.6293H124.708V17.5874C124.708 16.8322 124.894 16.1322 125.277 15.5075C125.645 14.907 126.134 14.4257 126.738 14.0733C127.358 13.6954 128.046 13.5093 128.786 13.5093H139.379C140.117 13.5093 140.804 13.6946 141.423 14.0707C142.043 14.4221 142.537 14.9055 142.893 15.515C143.273 16.1378 143.457 16.8352 143.457 17.5874V21.5143C143.457 22.2435 143.268 22.9291 142.896 23.558C142.541 24.1683 142.047 24.659 141.43 25.0264C140.81 25.4056 140.12 25.5924 139.379 25.5924H129.349V27.7866H143.457V32.428H124.708ZM128.689 28.4469C128.641 28.3823 128.616 28.3095 128.616 28.2287V25.1503C128.616 25.0695 128.641 25.0048 128.689 24.9563C128.754 24.8917 128.827 24.8594 128.907 24.8594H139.379C139.993 24.8594 140.551 24.7059 141.052 24.3988C141.569 24.0918 141.973 23.6878 142.264 23.1868C142.571 22.6697 142.724 22.1122 142.724 21.5143V17.5874C142.724 16.9571 142.571 16.3915 142.264 15.8906C141.973 15.3896 141.569 14.9937 141.052 14.7028C140.551 14.3958 139.993 14.2423 139.379 14.2423H128.786C128.172 14.2423 127.615 14.3958 127.114 14.7028C126.613 14.9937 126.209 15.3896 125.902 15.8906C125.595 16.3915 125.441 16.9571 125.441 17.5874V18.8963H128.616V17.7086C128.616 17.6278 128.641 17.5631 128.689 17.5147C128.754 17.45 128.827 17.4177 128.907 17.4177H139.258C139.339 17.4177 139.403 17.45 139.452 17.5147C139.516 17.5631 139.549 17.6278 139.549 17.7086V21.3688C139.549 21.4496 139.516 21.5223 139.452 21.587C139.403 21.6355 139.339 21.6597 139.258 21.6597H128.786C128.172 21.6597 127.615 21.8132 127.114 22.1203C126.613 22.4111 126.209 22.8071 125.902 23.308C125.595 23.809 125.441 24.3746 125.441 25.0048V31.6951H142.724V28.5196H128.907C128.827 28.5196 128.754 28.4954 128.689 28.4469Z" fill="#C5DFFF"/>
</g>
</g>
</g>
<g id="Group 48096021">
<g id="Group_14" filter="url(#filter6_d_368_760)">
<g id="Group_15">
<g id="Group_16">
<path id="Vector_10" d="M62.4787 31.9272L62.4795 31.9269C64.2407 31.2141 65.5536 30.2027 66.4593 28.9003C67.3113 27.6753 67.8659 26.318 68.1385 24.8152L64.6091 24.4373C64.4623 25.2311 64.1625 25.969 63.7269 26.6492C63.2108 27.4549 62.4144 28.0719 61.3859 28.4886C60.8552 28.705 60.3021 28.8373 59.7385 28.8854C59.1602 28.9348 58.5859 28.8604 58.0286 28.678C57.4507 28.4924 56.9381 28.185 56.4586 27.778L56.4556 27.7754L56.4556 27.7754C55.972 27.3551 55.5596 26.7854 55.2115 26.1035L55.0409 25.7693L55.3901 25.6268L67.1377 20.833C67.1299 20.7969 67.1232 20.7617 67.1172 20.7277C67.0746 20.6039 67.0435 20.4676 67.0165 20.3398C67.0006 20.2953 66.9848 20.2472 66.9697 20.2013C66.9653 20.1878 66.9609 20.1744 66.9566 20.1615C66.9339 20.0926 66.9103 20.0237 66.8827 19.9539L66.8778 19.9413L66.878 19.9412C66.442 18.6957 65.8735 17.623 65.1648 16.7074C64.4545 15.8012 63.6479 15.0894 62.7366 14.596C61.8262 14.103 60.822 13.8334 59.7082 13.7902C58.6043 13.7473 57.4356 13.9824 56.1873 14.4876C55.0096 14.9674 54.0228 15.6289 53.2194 16.4914C52.4074 17.3631 51.7892 18.3429 51.3535 19.4216C50.9189 20.5088 50.6962 21.6642 50.6678 22.8912L62.4787 31.9272ZM62.4787 31.9272C61.298 32.4082 60.1383 32.6341 59.0076 32.6018L59.0076 32.6018M62.4787 31.9272L59.0076 32.6018M59.0076 32.6018C57.8576 32.5692 56.7853 32.3197 55.7867 31.8445C54.7867 31.3686 53.8876 30.6866 53.1094 29.7844L53.108 29.7829M59.0076 32.6018L53.108 29.7829M53.108 29.7829C52.3318 28.894 51.714 27.804 51.2588 26.5175L51.2587 26.5173M53.108 29.7829L51.2587 26.5173M51.2587 26.5173C50.8358 25.3245 50.6394 24.124 50.6678 22.8913L51.2587 26.5173ZM62.4579 19.8054L62.7832 19.6722L62.6461 19.3503C62.4997 19.0064 62.2613 18.6788 61.9488 18.355C61.6218 18.0161 61.2266 17.7433 60.7571 17.5349C60.2833 17.3246 59.7537 17.2021 59.1711 17.1894C58.5707 17.1649 57.9177 17.3037 57.2382 17.5881C56.259 17.9886 55.4873 18.6477 54.9561 19.5494C54.4128 20.4533 54.1836 21.5077 54.2654 22.6747L54.2984 23.1467L54.7375 22.9669L62.4579 19.8054Z" stroke="#FFDBF7" stroke-width="0.68858"/>
</g>
<g id="Group_17">
<path id="Vector_11" d="M74.235 16.5596C74.6289 15.8518 75.2317 15.2374 76.0706 14.7097C76.8828 14.2099 77.9153 13.949 79.1666 13.949C80.2017 13.949 81.1832 14.1741 82.1255 14.6363C83.0642 15.102 83.8999 15.7403 84.6141 16.5637C85.3292 17.3883 85.9042 18.3676 86.3267 19.528L86.3271 19.529C86.7472 20.6715 86.9551 21.9398 86.9463 23.3151C86.9375 24.6897 86.7136 25.9472 86.2783 27.102C85.8398 28.2541 85.2623 29.2432 84.5291 30.0647L84.5276 30.0665C83.8027 30.8901 82.9585 31.5286 82.0136 31.9942C81.0772 32.4557 80.0827 32.6812 79.0466 32.6812C77.7957 32.6812 76.7754 32.4205 75.9574 31.9187C75.1185 31.4042 74.5247 30.7806 74.1501 30.0738L74.0539 29.8923L73.8479 29.8923L73.5733 29.8923L73.229 29.8923L73.2268 30.2366L73.215 32.0828L69.6268 32.0828L69.7931 6.13555L73.6558 6.13555L73.6069 13.7673L73.3176 16.3576L73.2752 16.7379L73.6576 16.7379L73.9322 16.7379L74.1357 16.7379L74.235 16.5596ZM82.6524 25.6024L82.6524 25.6024L82.6542 25.5979C82.9301 24.9085 83.0677 24.1422 83.073 23.3151C83.0783 22.488 82.9505 21.7217 82.6835 21.0324C82.42 20.3521 82.0636 19.7722 81.612 19.2861C81.1618 18.8013 80.6517 18.4359 80.0629 18.1688C79.4714 17.9004 78.8537 17.7656 78.2023 17.7656C77.5556 17.7656 76.9379 17.8873 76.3422 18.1438C75.7459 18.4006 75.2297 18.7676 74.7734 19.2522C74.3136 19.7405 73.962 20.3203 73.6814 20.994L73.6814 20.994L73.6796 20.9985C73.4033 21.6889 73.266 22.4667 73.2606 23.3151C73.2552 24.1635 73.3824 24.9413 73.6499 25.6317C73.9134 26.312 74.2698 26.8919 74.7213 27.378C75.1714 27.8626 75.6829 28.2296 76.2759 28.4864C76.8684 28.7429 77.4845 28.8646 78.1312 28.8646C78.7826 28.8646 79.402 28.7298 79.997 28.4614C80.5921 28.193 81.105 27.8157 81.5574 27.3473C82.021 26.8671 82.3729 26.2732 82.6524 25.6024Z" stroke="#FFDBF7" stroke-width="0.68858"/>
</g>
<g id="Group_18">
<path id="Vector_12" d="M100.17 29.701L99.9729 29.701L99.8719 29.8705C99.3554 30.7371 98.6731 31.4279 97.8242 31.9275C96.9683 32.425 96.0019 32.6819 94.8954 32.6819C92.8206 32.6819 91.3318 32.0026 90.3621 30.697C89.3709 29.3625 88.865 27.557 88.8798 25.2466L88.9485 14.5481L92.8277 14.5481L92.7628 24.6595C92.7542 26.0071 93.0284 27.0858 93.6391 27.8073L93.6391 27.8073L93.6412 27.8098C94.2672 28.535 95.1636 28.8766 96.2838 28.8766C96.9638 28.8766 97.5764 28.7159 98.112 28.3994C98.6363 28.0895 99.0759 27.6701 99.4428 27.1484C99.8107 26.6254 100.084 26.0221 100.267 25.3207C100.447 24.6385 100.551 23.9098 100.556 23.1352L100.611 14.5481L104.49 14.5481L104.378 32.0835L100.784 32.0835L100.797 30.0453L100.799 29.701L100.455 29.701L100.445 29.701L100.17 29.701Z" stroke="#FFDBF7" stroke-width="0.68858"/>
</g>
<g id="Group_19">
<path id="Vector_13" d="M109.363 18.0257L106.724 18.0257L106.746 14.5478L109.385 14.5478L109.73 14.5478L109.732 14.2035L109.765 8.97002L113.631 8.97002L113.598 14.2035L113.595 14.5478L113.94 14.5478L117.76 14.5478L117.738 18.0257L113.918 18.0257L113.573 18.0257L113.571 18.37L113.524 25.6528C113.522 26.1156 113.563 26.5365 113.651 26.9369C113.742 27.3486 113.907 27.7216 114.184 28.0237C114.583 28.5176 115.148 28.7521 115.831 28.7521C116.242 28.7521 116.606 28.7054 116.895 28.5931C117.009 28.5488 117.122 28.4993 117.233 28.4432L118.284 32.0183C117.848 32.2151 117.39 32.3675 116.903 32.4752C116.319 32.6044 115.669 32.6703 114.941 32.6703C114.127 32.6703 113.406 32.5305 112.771 32.2577C112.128 31.9816 111.603 31.6137 111.178 31.1452L111.178 31.1452L111.173 31.1399C110.173 30.0819 109.65 28.5631 109.664 26.5222L109.716 18.37L109.718 18.0257L109.374 18.0257L109.363 18.0257Z" stroke="#FFDBF7" stroke-width="0.68858"/>
</g>
</g>
<g id="Group_20">
<g id="Group_21">
<path id="Vector_14" d="M6.35374 32.1088L6.51008 7.13262L10.3181 7.13262L10.1618 32.1088L6.35374 32.1088Z" stroke="#FFDBF7" stroke-width="0.68858"/>
</g>
<g id="Group_22">
<path id="Vector_15" d="M24.0443 32.2033L24.045 32.203C25.8063 31.4902 27.1192 30.4788 28.0249 29.1765C28.8763 27.9522 29.4307 26.5959 29.7035 25.0943L26.1643 24.7446C26.0177 25.5395 25.7177 26.2783 25.2816 26.9592C24.7655 27.7648 23.9692 28.3819 22.9406 28.7986C22.4099 29.015 21.8568 29.1473 21.2932 29.1954C20.715 29.2448 20.1406 29.1704 19.5833 28.988C19.0054 28.8024 18.4929 28.495 18.0133 28.088L18.0103 28.0854L18.0103 28.0854C17.5267 27.6651 17.1143 27.0954 16.7662 26.4135L16.596 26.08L16.9441 25.9371L28.7033 21.1098C28.6955 21.0735 28.6887 21.0381 28.6827 21.0038C28.6401 20.8801 28.609 20.7437 28.582 20.6159C28.5661 20.5714 28.5503 20.5233 28.5352 20.4774C28.5308 20.4639 28.5264 20.4506 28.5221 20.4376C28.4994 20.3687 28.4758 20.2999 28.4482 20.23L28.4433 20.2175L28.4435 20.2174C28.0075 18.9718 27.439 17.8991 26.7303 16.9835C26.02 16.0773 25.2134 15.3656 24.302 14.8721C23.3917 14.3791 22.3875 14.1095 21.2737 14.0663C20.1697 14.0234 19.001 14.2585 17.7527 14.7638C16.575 15.2436 15.5882 15.905 14.7848 16.7675C13.9728 17.6392 13.3546 18.619 12.919 19.6977C12.4843 20.7849 12.2617 21.9404 12.2333 23.1674L24.0443 32.2033ZM24.0443 32.2033C22.8635 32.6843 21.7039 32.9103 20.5732 32.8779L20.5731 32.8779M24.0443 32.2033L20.5731 32.8779M20.5731 32.8779C19.4231 32.8453 18.3508 32.5959 17.3523 32.1206C16.3522 31.6447 15.4531 30.9628 14.6749 30.0605L14.6735 30.059M20.5731 32.8779L14.6735 30.059M14.6735 30.059C13.8973 29.1701 13.2795 28.0801 12.8243 26.7936L12.8242 26.7934M14.6735 30.059L12.8242 26.7934M12.8242 26.7934C12.4013 25.6007 12.2049 24.4001 12.2333 23.1674L12.8242 26.7934ZM24.0234 20.0928L24.3486 19.9596L24.2115 19.6377C24.0651 19.2939 23.8267 18.9662 23.5142 18.6424C23.1872 18.3035 22.792 18.0307 22.3225 17.8223C21.8487 17.612 21.3191 17.4895 20.7364 17.4768C20.1361 17.4523 19.4831 17.5911 18.8037 17.8755C17.8244 18.2759 17.0527 18.9351 16.5214 19.8368C15.9782 20.7408 15.749 21.7951 15.8308 22.9621L15.8638 23.4341L16.3029 23.2543L24.0234 20.0928Z" stroke="#FFDBF7" stroke-width="0.68858"/>
</g>
</g>
<g id="Group_23">
<g id="Group_24">
<path id="Vector_16" d="M48.9653 6.11846L48.5974 32.0841L45.002 32.0841L45.0138 30.2379L45.0161 29.8936L44.6718 29.8936L44.3969 29.8936L44.191 29.8936L44.0924 30.0751C43.7092 30.7803 43.097 31.4045 42.2589 31.9204C41.4336 32.4219 40.4089 32.6826 39.1568 32.6826C38.1195 32.6826 37.1267 32.457 36.1952 31.9955C35.2552 31.5298 34.4183 30.8914 33.7032 30.0677L33.7016 30.0659C32.9781 29.2443 32.4127 28.2553 31.9886 27.1031C31.5676 25.9483 31.3597 24.691 31.3685 23.3165C31.3773 21.9419 31.6014 20.6841 32.0269 19.54C32.4648 18.38 33.0528 17.4009 33.7791 16.5765C34.5048 15.7529 35.3499 15.1144 36.2959 14.6487C37.2333 14.1872 38.229 13.9617 39.2663 13.9617C40.5191 13.9617 41.5496 14.2226 42.3563 14.7224C43.1894 15.2502 43.785 15.8646 44.1702 16.5724L44.2672 16.7506L44.4706 16.7506L44.7455 16.7506L45.128 16.7506L45.0903 16.3702L44.8344 13.7844L45.081 6.11846L48.9653 6.11846ZM36.688 27.3569L36.688 27.3569L36.691 27.36C37.1378 27.8285 37.6464 28.2057 38.2386 28.4741C38.8307 28.7424 39.449 28.8773 40.1009 28.8773C40.7483 28.8773 41.3665 28.7556 41.9628 28.4991C42.5597 28.2423 43.0764 27.8753 43.5332 27.3908C43.9911 26.905 44.3552 26.3255 44.6277 25.6458C44.9164 24.941 45.0422 24.173 45.0476 23.3278C45.053 22.4793 44.9257 21.7015 44.6579 21.011L44.6579 21.011L44.6561 21.0065C44.3838 20.3329 44.0393 19.753 43.5853 19.2648C43.1347 18.7802 42.6227 18.4132 42.0292 18.1564C41.4361 17.8999 40.8195 17.7783 40.1721 17.7783C39.5202 17.7783 38.9002 17.9131 38.3047 18.1814C37.7119 18.4485 37.1966 18.8139 36.7397 19.2986C36.2814 19.7847 35.9172 20.3646 35.6447 21.0449C35.3685 21.7343 35.2308 22.5006 35.2255 23.3278C35.2202 24.1549 35.348 24.9212 35.6154 25.6106L35.6153 25.6106L35.6172 25.6151C35.8895 26.2888 36.234 26.8686 36.688 27.3569Z" stroke="#FFDBF7" stroke-width="0.68858"/>
</g>
</g>
<g id="Group_25">
<g id="Group_26">
<path id="Vector_17" d="M55.8315 12.7253L53.3543 13.7397L53.1377 9.80083L56.7784 8.31089L55.8315 12.7253Z" stroke="#FFDBF7" stroke-width="0.34429"/>
<g id="Vector_18">
<mask id="path-23-inside-2_368_760" fill="white">
<path d="M53.0465 14.2296L52.7911 9.57764L57.2283 7.75977L56.107 12.9763L53.0465 14.2296ZM53.1171 9.80346L53.3348 13.7441L55.8339 12.7279L56.7811 8.31303L53.1171 9.80346Z"/>
</mask>
<path d="M53.0465 14.2296L52.7027 14.2507L52.7291 14.7308L53.1752 14.5481L53.0465 14.2296ZM52.7911 9.57764L52.6623 9.25917L52.4338 9.35279L52.4473 9.59871L52.7911 9.57764ZM57.2283 7.75977L57.5649 7.83005L57.7014 7.19469L57.0995 7.4413L57.2283 7.75977ZM56.107 12.9763L56.2357 13.2948L56.4051 13.2254L56.4435 13.0466L56.107 12.9763ZM53.1171 9.80346L52.9891 9.48467L52.7597 9.57799L52.7733 9.82465L53.1171 9.80346ZM53.3348 13.7441L52.991 13.7653L53.0174 14.2439L53.4627 14.0629L53.3348 13.7441ZM55.8339 12.7279L55.9619 13.0467L56.1321 12.9775L56.1706 12.798L55.8339 12.7279ZM56.7811 8.31303L57.1177 8.38319L57.2536 7.75L56.6531 7.99424L56.7811 8.31303ZM53.3903 14.2085L53.1349 9.55657L52.4473 9.59871L52.7027 14.2507L53.3903 14.2085ZM52.9199 9.8961L57.357 8.07823L57.0995 7.4413L52.6623 9.25917L52.9199 9.8961ZM56.8917 7.68948L55.7704 12.906L56.4435 13.0466L57.5649 7.83005L56.8917 7.68948ZM55.9782 12.6578L52.9177 13.9111L53.1752 14.5481L56.2357 13.2948L55.9782 12.6578ZM52.7733 9.82465L52.991 13.7653L53.6785 13.7229L53.4608 9.78228L52.7733 9.82465ZM53.4627 14.0629L55.9619 13.0467L55.706 12.4091L53.2068 13.4253L53.4627 14.0629ZM56.1706 12.798L57.1177 8.38319L56.4445 8.24288L55.4973 12.6577L56.1706 12.798ZM56.6531 7.99424L52.9891 9.48467L53.245 10.1223L56.9091 8.63183L56.6531 7.99424Z" fill="#FFDBF7" mask="url(#path-23-inside-2_368_760)"/>
</g>
</g>
</g>
</g>
<g id="2024 (Stroke)_2">
<g id="Stroke_5" filter="url(#filter7_d_368_760)">
<path fill-rule="evenodd" clip-rule="evenodd" d="M195.91 32.428V28.0406H184.93V24.0002L196.555 13.5093H200.552V23.375H203V28.0406H200.552V32.428H195.91ZM199.819 27.3076H202.267V24.1079H199.819V14.2423H196.837L185.663 24.3261V27.3076H196.643V31.6951H199.819V27.3076ZM196.643 24.1079H190.608L196.643 19.066V24.1079ZM195.91 20.6334L192.628 23.375H195.91V20.6334Z" fill="#C5DFFF"/>
</g>
<g id="Stroke_6" filter="url(#filter8_d_368_760)">
<path fill-rule="evenodd" clip-rule="evenodd" d="M166.045 32.428V25.0048C166.045 24.2496 166.231 23.5496 166.614 22.925C166.982 22.3244 167.471 21.8431 168.075 21.4907C168.695 21.1128 169.383 20.9267 170.123 20.9267H180.153V18.1507H170.686V19.6293H166.045V17.5874C166.045 16.8322 166.231 16.1322 166.614 15.5075C166.982 14.907 167.471 14.4257 168.075 14.0733C168.695 13.6954 169.383 13.5093 170.123 13.5093H180.716C181.454 13.5093 182.141 13.6946 182.76 14.0707C183.38 14.4221 183.874 14.9055 184.23 15.5149C184.61 16.1377 184.794 16.8351 184.794 17.5874V21.5143C184.794 22.2435 184.605 22.9291 184.233 23.558C183.877 24.1684 183.384 24.6591 182.767 25.0265C182.147 25.4056 181.457 25.5924 180.716 25.5924H170.686V27.7866H184.794V32.428H166.045ZM170.026 28.4469C169.978 28.3823 169.953 28.3095 169.953 28.2287V25.1503C169.953 25.0695 169.978 25.0048 170.026 24.9563C170.091 24.8917 170.163 24.8594 170.244 24.8594H180.716C181.33 24.8594 181.888 24.7059 182.388 24.3988C182.906 24.0918 183.31 23.6878 183.6 23.1868C183.907 22.6697 184.061 22.1122 184.061 21.5143V17.5874C184.061 16.9571 183.907 16.3915 183.6 15.8906C183.31 15.3896 182.906 14.9937 182.388 14.7028C181.888 14.3958 181.33 14.2423 180.716 14.2423H170.123C169.509 14.2423 168.951 14.3958 168.45 14.7028C167.95 14.9937 167.545 15.3896 167.238 15.8906C166.931 16.3915 166.778 16.9571 166.778 17.5874V18.8963H169.953V17.7086C169.953 17.6278 169.978 17.5631 170.026 17.5147C170.091 17.45 170.163 17.4177 170.244 17.4177H180.595C180.676 17.4177 180.74 17.45 180.789 17.5147C180.853 17.5631 180.886 17.6278 180.886 17.7086V21.3688C180.886 21.4496 180.853 21.5223 180.789 21.587C180.74 21.6355 180.676 21.6597 180.595 21.6597H170.123C169.509 21.6597 168.951 21.8132 168.45 22.1203C167.95 22.4111 167.545 22.8071 167.238 23.308C166.931 23.809 166.778 24.3746 166.778 25.0048V31.6951H184.061V28.5196H170.244C170.163 28.5196 170.091 28.4954 170.026 28.4469Z" fill="#C5DFFF"/>
</g>
<g id="Stroke_7" filter="url(#filter9_d_368_760)">
<path fill-rule="evenodd" clip-rule="evenodd" d="M147.824 31.8171C147.229 31.4143 146.749 30.8949 146.387 30.267C146.018 29.6259 145.829 28.9346 145.829 28.2045V17.6601C145.829 16.9066 146.014 16.2082 146.395 15.5846C146.76 14.9721 147.244 14.476 147.844 14.1065C148.466 13.7076 149.16 13.5093 149.907 13.5093H160.5C161.248 13.5093 161.942 13.7076 162.563 14.1065C163.163 14.476 163.648 14.9722 164.012 15.5848C164.393 16.2083 164.578 16.9067 164.578 17.6601V28.2045C164.578 28.9346 164.389 29.6259 164.02 30.267C163.658 30.8949 163.178 31.4143 162.584 31.8171L162.57 31.8263C161.947 32.2283 161.251 32.428 160.5 32.428H149.907C149.157 32.428 148.46 32.2282 147.837 31.8262L147.824 31.8171ZM163.385 15.9633C163.078 15.4462 162.674 15.0341 162.173 14.7271C161.672 14.4039 161.114 14.2423 160.5 14.2423H149.907C149.293 14.2423 148.736 14.4039 148.235 14.7271C147.734 15.0341 147.33 15.4462 147.023 15.9633C146.716 16.4643 146.562 17.0299 146.562 17.6601V28.2045C146.562 28.8024 146.716 29.368 147.023 29.9013C147.33 30.4346 147.734 30.8709 148.235 31.2103C148.736 31.5335 149.293 31.6951 149.907 31.6951H160.5C161.114 31.6951 161.672 31.5335 162.173 31.2103C162.674 30.8709 163.078 30.4346 163.385 29.9013C163.692 29.368 163.845 28.8024 163.845 28.2045V17.6601C163.845 17.0299 163.692 16.4643 163.385 15.9633ZM159.937 27.617V22.0131L153.216 27.617H159.937ZM151.192 28.3499L160.67 20.4477V28.0591C160.67 28.1399 160.637 28.2126 160.573 28.2772C160.524 28.3257 160.46 28.3499 160.379 28.3499H151.192ZM159.215 17.4904H150.028C149.948 17.4904 149.875 17.5227 149.81 17.5874C149.762 17.6359 149.738 17.7005 149.738 17.7813V25.3927L159.215 17.4904ZM157.192 18.2234H150.47V23.8272L157.192 18.2234Z" fill="#C5DFFF"/>
</g>
<g id="Stroke_8" filter="url(#filter10_d_368_760)">
<path fill-rule="evenodd" clip-rule="evenodd" d="M125.708 32.428V25.0048C125.708 24.2496 125.894 23.5496 126.277 22.925C126.645 22.3244 127.134 21.8432 127.738 21.4908C128.358 21.1129 129.046 20.9267 129.786 20.9267H139.816V18.1507H130.349V19.6293H125.708V17.5874C125.708 16.8322 125.894 16.1322 126.277 15.5075C126.645 14.907 127.134 14.4257 127.738 14.0733C128.358 13.6954 129.046 13.5093 129.786 13.5093H140.379C141.117 13.5093 141.804 13.6946 142.423 14.0707C143.043 14.4221 143.537 14.9055 143.893 15.515C144.273 16.1378 144.457 16.8352 144.457 17.5874V21.5143C144.457 22.2435 144.268 22.9291 143.896 23.558C143.541 24.1683 143.047 24.659 142.43 25.0264C141.81 25.4056 141.12 25.5924 140.379 25.5924H130.349V27.7866H144.457V32.428H125.708ZM129.689 28.4469C129.641 28.3823 129.616 28.3095 129.616 28.2287V25.1503C129.616 25.0695 129.641 25.0048 129.689 24.9563C129.754 24.8917 129.827 24.8594 129.907 24.8594H140.379C140.993 24.8594 141.551 24.7059 142.052 24.3988C142.569 24.0918 142.973 23.6878 143.264 23.1868C143.571 22.6697 143.724 22.1122 143.724 21.5143V17.5874C143.724 16.9571 143.571 16.3915 143.264 15.8906C142.973 15.3896 142.569 14.9937 142.052 14.7028C141.551 14.3958 140.993 14.2423 140.379 14.2423H129.786C129.172 14.2423 128.615 14.3958 128.114 14.7028C127.613 14.9937 127.209 15.3896 126.902 15.8906C126.595 16.3915 126.441 16.9571 126.441 17.5874V18.8963H129.616V17.7086C129.616 17.6278 129.641 17.5631 129.689 17.5147C129.754 17.45 129.827 17.4177 129.907 17.4177H140.258C140.339 17.4177 140.403 17.45 140.452 17.5147C140.516 17.5631 140.549 17.6278 140.549 17.7086V21.3688C140.549 21.4496 140.516 21.5223 140.452 21.587C140.403 21.6355 140.339 21.6597 140.258 21.6597H129.786C129.172 21.6597 128.615 21.8132 128.114 22.1203C127.613 22.4111 127.209 22.8071 126.902 23.308C126.595 23.809 126.441 24.3746 126.441 25.0048V31.6951H143.724V28.5196H129.907C129.827 28.5196 129.754 28.4954 129.689 28.4469Z" fill="#C5DFFF"/>
</g>
</g>
</g>
</g>
<defs>
<filter id="filter0_f_368_760" x="0.803325" y="0.587993" width="206.4" height="37.8411" filterUnits="userSpaceOnUse" color-interpolation-filters="sRGB">
<feFlood flood-opacity="0" result="BackgroundImageFix"/>
<feBlend mode="normal" in="SourceGraphic" in2="BackgroundImageFix" result="shape"/>
<feGaussianBlur stdDeviation="2.60176" result="effect1_foregroundBlur_368_760"/>
</filter>
<filter id="filter1_d_368_760" x="2.56394" y="2.34861" width="119.576" height="34.3199" filterUnits="userSpaceOnUse" color-interpolation-filters="sRGB">
<feFlood flood-opacity="0" result="BackgroundImageFix"/>
<feColorMatrix in="SourceAlpha" type="matrix" values="0 0 0 0 0 0 0 0 0 0 0 0 0 0 0 0 0 0 127 0" result="hardAlpha"/>
<feOffset/>
<feGaussianBlur stdDeviation="1.72145"/>
<feColorMatrix type="matrix" values="0 0 0 0 1 0 0 0 0 0 0 0 0 0 0.54 0 0 0 1 0"/>
<feBlend mode="normal" in2="BackgroundImageFix" result="effect1_dropShadow_368_760"/>
<feBlend mode="normal" in="SourceGraphic" in2="effect1_dropShadow_368_760" result="shape"/>
</filter>
<filter id="filter2_d_368_760" x="180.668" y="10.2475" width="24.5938" height="25.4422" filterUnits="userSpaceOnUse" color-interpolation-filters="sRGB">
<feFlood flood-opacity="0" result="BackgroundImageFix"/>
<feColorMatrix in="SourceAlpha" type="matrix" values="0 0 0 0 0 0 0 0 0 0 0 0 0 0 0 0 0 0 127 0" result="hardAlpha"/>
<feOffset/>
<feGaussianBlur stdDeviation="1.63087"/>
<feColorMatrix type="matrix" values="0 0 0 0 0.329167 0 0 0 0 0.4365 0 0 0 0 1 0 0 0 1 0"/>
<feBlend mode="normal" in2="BackgroundImageFix" result="effect1_dropShadow_368_760"/>
<feBlend mode="normal" in="SourceGraphic" in2="effect1_dropShadow_368_760" result="shape"/>
</filter>
<filter id="filter3_d_368_760" x="161.783" y="10.2475" width="25.2725" height="25.4422" filterUnits="userSpaceOnUse" color-interpolation-filters="sRGB">
<feFlood flood-opacity="0" result="BackgroundImageFix"/>
<feColorMatrix in="SourceAlpha" type="matrix" values="0 0 0 0 0 0 0 0 0 0 0 0 0 0 0 0 0 0 127 0" result="hardAlpha"/>
<feOffset/>
<feGaussianBlur stdDeviation="1.63087"/>
<feColorMatrix type="matrix" values="0 0 0 0 0.329167 0 0 0 0 0.4365 0 0 0 0 1 0 0 0 1 0"/>
<feBlend mode="normal" in2="BackgroundImageFix" result="effect1_dropShadow_368_760"/>
<feBlend mode="normal" in="SourceGraphic" in2="effect1_dropShadow_368_760" result="shape"/>
</filter>
<filter id="filter4_d_368_760" x="141.567" y="10.2475" width="25.2725" height="25.4422" filterUnits="userSpaceOnUse" color-interpolation-filters="sRGB">
<feFlood flood-opacity="0" result="BackgroundImageFix"/>
<feColorMatrix in="SourceAlpha" type="matrix" values="0 0 0 0 0 0 0 0 0 0 0 0 0 0 0 0 0 0 127 0" result="hardAlpha"/>
<feOffset/>
<feGaussianBlur stdDeviation="1.63087"/>
<feColorMatrix type="matrix" values="0 0 0 0 0.329167 0 0 0 0 0.4365 0 0 0 0 1 0 0 0 1 0"/>
<feBlend mode="normal" in2="BackgroundImageFix" result="effect1_dropShadow_368_760"/>
<feBlend mode="normal" in="SourceGraphic" in2="effect1_dropShadow_368_760" result="shape"/>
</filter>
<filter id="filter5_d_368_760" x="121.446" y="10.2475" width="25.2725" height="25.4422" filterUnits="userSpaceOnUse" color-interpolation-filters="sRGB">
<feFlood flood-opacity="0" result="BackgroundImageFix"/>
<feColorMatrix in="SourceAlpha" type="matrix" values="0 0 0 0 0 0 0 0 0 0 0 0 0 0 0 0 0 0 127 0" result="hardAlpha"/>
<feOffset/>
<feGaussianBlur stdDeviation="1.63087"/>
<feColorMatrix type="matrix" values="0 0 0 0 0.329167 0 0 0 0 0.4365 0 0 0 0 1 0 0 0 1 0"/>
<feBlend mode="normal" in2="BackgroundImageFix" result="effect1_dropShadow_368_760"/>
<feBlend mode="normal" in="SourceGraphic" in2="effect1_dropShadow_368_760" result="shape"/>
</filter>
<filter id="filter6_d_368_760" x="2.56394" y="2.33127" width="119.576" height="34.337" filterUnits="userSpaceOnUse" color-interpolation-filters="sRGB">
<feFlood flood-opacity="0" result="BackgroundImageFix"/>
<feColorMatrix in="SourceAlpha" type="matrix" values="0 0 0 0 0 0 0 0 0 0 0 0 0 0 0 0 0 0 127 0" result="hardAlpha"/>
<feOffset/>
<feGaussianBlur stdDeviation="1.72145"/>
<feColorMatrix type="matrix" values="0 0 0 0 1 0 0 0 0 0 0 0 0 0 0.54 0 0 0 1 0"/>
<feBlend mode="normal" in2="BackgroundImageFix" result="effect1_dropShadow_368_760"/>
<feBlend mode="normal" in="SourceGraphic" in2="effect1_dropShadow_368_760" result="shape"/>
</filter>
<filter id="filter7_d_368_760" x="181.668" y="10.2475" width="24.5938" height="25.4422" filterUnits="userSpaceOnUse" color-interpolation-filters="sRGB">
<feFlood flood-opacity="0" result="BackgroundImageFix"/>
<feColorMatrix in="SourceAlpha" type="matrix" values="0 0 0 0 0 0 0 0 0 0 0 0 0 0 0 0 0 0 127 0" result="hardAlpha"/>
<feOffset/>
<feGaussianBlur stdDeviation="1.63087"/>
<feColorMatrix type="matrix" values="0 0 0 0 0.329167 0 0 0 0 0.4365 0 0 0 0 1 0 0 0 1 0"/>
<feBlend mode="normal" in2="BackgroundImageFix" result="effect1_dropShadow_368_760"/>
<feBlend mode="normal" in="SourceGraphic" in2="effect1_dropShadow_368_760" result="shape"/>
</filter>
<filter id="filter8_d_368_760" x="162.783" y="10.2475" width="25.2725" height="25.4422" filterUnits="userSpaceOnUse" color-interpolation-filters="sRGB">
<feFlood flood-opacity="0" result="BackgroundImageFix"/>
<feColorMatrix in="SourceAlpha" type="matrix" values="0 0 0 0 0 0 0 0 0 0 0 0 0 0 0 0 0 0 127 0" result="hardAlpha"/>
<feOffset/>
<feGaussianBlur stdDeviation="1.63087"/>
<feColorMatrix type="matrix" values="0 0 0 0 0.329167 0 0 0 0 0.4365 0 0 0 0 1 0 0 0 1 0"/>
<feBlend mode="normal" in2="BackgroundImageFix" result="effect1_dropShadow_368_760"/>
<feBlend mode="normal" in="SourceGraphic" in2="effect1_dropShadow_368_760" result="shape"/>
</filter>
<filter id="filter9_d_368_760" x="142.567" y="10.2475" width="25.2725" height="25.4422" filterUnits="userSpaceOnUse" color-interpolation-filters="sRGB">
<feFlood flood-opacity="0" result="BackgroundImageFix"/>
<feColorMatrix in="SourceAlpha" type="matrix" values="0 0 0 0 0 0 0 0 0 0 0 0 0 0 0 0 0 0 127 0" result="hardAlpha"/>
<feOffset/>
<feGaussianBlur stdDeviation="1.63087"/>
<feColorMatrix type="matrix" values="0 0 0 0 0.329167 0 0 0 0 0.4365 0 0 0 0 1 0 0 0 1 0"/>
<feBlend mode="normal" in2="BackgroundImageFix" result="effect1_dropShadow_368_760"/>
<feBlend mode="normal" in="SourceGraphic" in2="effect1_dropShadow_368_760" result="shape"/>
</filter>
<filter id="filter10_d_368_760" x="122.446" y="10.2475" width="25.2725" height="25.4422" filterUnits="userSpaceOnUse" color-interpolation-filters="sRGB">
<feFlood flood-opacity="0" result="BackgroundImageFix"/>
<feColorMatrix in="SourceAlpha" type="matrix" values="0 0 0 0 0 0 0 0 0 0 0 0 0 0 0 0 0 0 127 0" result="hardAlpha"/>
<feOffset/>
<feGaussianBlur stdDeviation="1.63087"/>
<feColorMatrix type="matrix" values="0 0 0 0 0.329167 0 0 0 0 0.4365 0 0 0 0 1 0 0 0 1 0"/>
<feBlend mode="normal" in2="BackgroundImageFix" result="effect1_dropShadow_368_760"/>
<feBlend mode="normal" in="SourceGraphic" in2="effect1_dropShadow_368_760" result="shape"/>
</filter>
</defs>
</svg>
